<svg xmlns="http://www.w3.org/2000/svg" width="22" height="22" viewBox="0 0 22 22">
  <g id="black-play-square" transform="translate(-1 -1)">
    <path id="패스_58" data-name="패스 58" d="M19,23H5a4,4,0,0,1-4-4V5A4,4,0,0,1,5,1H19a4,4,0,0,1,4,4V19A4,4,0,0,1,19,23ZM5,3A2,2,0,0,0,3,5V19a2,2,0,0,0,2,2H19a2,2,0,0,0,2-2V5a2,2,0,0,0-2-2Z"/>
    <path id="패스_59" data-name="패스 59" d="M19,2H5A3,3,0,0,0,2,5V19a3,3,0,0,0,3,3H19a3,3,0,0,0,3-3V5A3,3,0,0,0,19,2ZM15.24,13,9.86,16.1a1.09,1.09,0,0,1-1.64-.94V8.89A1.09,1.09,0,0,1,9.86,8l5.38,3.1a1.1,1.1,0,0,1,0,1.9Z"/>
  </g>
</svg>
