<svg xmlns="http://www.w3.org/2000/svg" width="22" height="21.96" viewBox="0 0 22 21.96">
  <g id="black-pin-fix" transform="translate(-2.12 -1.222)">
    <path id="패스_70" data-name="패스 70" d="M18.6,1.818a2.161,2.161,0,0,0-2.981,0L8.5,8.945a2.092,2.092,0,0,1-.667.452L4.488,10.8a1.893,1.893,0,0,0-.766,3.134L6.986,17.2l-4.6,4.636a.766.766,0,1,0,1.08,1.08l4.636-4.6,3.264,3.264a1.87,1.87,0,0,0,1.333.552,2.115,2.115,0,0,0,.437-.046A1.87,1.87,0,0,0,14.48,20.9L15.921,17.5a2.092,2.092,0,0,1,.452-.667L23.5,9.711a2.1,2.1,0,0,0,0-2.981Z"/>
  </g>
</svg>
