<svg xmlns="http://www.w3.org/2000/svg" width="22" height="22" viewBox="0 0 22 22">
  <g id="black-paper" transform="translate(-1 -1)">
    <circle id="타원_4" data-name="타원 4" cx="1" cy="1" r="1" transform="translate(17 15)"/>
    <rect id="사각형_9" data-name="사각형 9" width="10" height="2" rx="1" transform="translate(9 11)"/>
    <rect id="사각형_10" data-name="사각형 10" width="6" height="2" rx="1" transform="translate(9 15)"/>
    <path id="패스_46" data-name="패스 46" d="M19,2H9A3,3,0,0,0,6,5V9H22V5A3,3,0,0,0,19,2ZM16,7H12a1,1,0,0,1,0-2h4a1,1,0,0,1,0,2Z"/>
    <path id="패스_47" data-name="패스 47" d="M19,23H5a4,4,0,0,1-4-4V7A1,1,0,0,1,3,7V19a2,2,0,0,0,2,2H19a2,2,0,0,0,2-2V5a2,2,0,0,0-2-2H9A2,2,0,0,0,7,5V18a1,1,0,0,1-2,0V5A4,4,0,0,1,9,1H19a4,4,0,0,1,4,4V19A4,4,0,0,1,19,23Z"/>
  </g>
</svg>
