<svg xmlns="http://www.w3.org/2000/svg" width="19.544" height="22.015" viewBox="0 0 19.544 22.015">
  <g id="black-antena" transform="translate(-2.228 -0.996)">
    <path id="패스_32" data-name="패스 32" d="M12,23a2.81,2.81,0,0,1-.5,0A3.09,3.09,0,0,1,9,19.89v-9L3.31,6.19a2.74,2.74,0,0,1-.93-3.08A3.37,3.37,0,0,1,5.67,1H18.33a3.37,3.37,0,0,1,3.29,2.11,2.74,2.74,0,0,1-.93,3.08L15,10.84V20a3,3,0,0,1-3,3ZM5.67,3a1.42,1.42,0,0,0-1.41.78.77.77,0,0,0,.32.86l5.69,4.65A2,2,0,0,1,11,10.84v9.05a1.09,1.09,0,0,0,.82,1.1A1.009,1.009,0,0,0,13,20V10.84a2,2,0,0,1,.73-1.55l5.69-4.65a.77.77,0,0,0,.32-.86A1.42,1.42,0,0,0,18.33,3Z"/>
    <path id="패스_33" data-name="패스 33" d="M18.33,2H5.67C3.49,2,2.4,4.15,3.94,5.41l5.69,4.65a1,1,0,0,1,.37.78v9.05A2.07,2.07,0,0,0,11.66,22,2,2,0,0,0,14,20V10.84a1,1,0,0,1,.37-.78l5.69-4.65C21.6,4.15,20.51,2,18.33,2Z"/>
  </g>
</svg>
