<svg xmlns="http://www.w3.org/2000/svg" width="20.202" height="22" viewBox="0 0 20.202 22">
  <g id="black-paper-long" transform="translate(-2.24 -1)">
    <path id="패스_84" data-name="패스 84" d="M16.52,8.55h-8a1,1,0,1,0,0,2h8a1,1,0,1,0,0-2Z" transform="translate(-2.206 -2.151)"/>
    <path id="패스_85" data-name="패스 85" d="M16.52,13.9h-8a1,1,0,0,0,0,2h8a1,1,0,0,0,0-2Z" transform="translate(-2.206 -3.676)"/>
    <path id="패스_86" data-name="패스 86" d="M16.52,19.37h-8a1,1,0,0,0,0,2h8a1,1,0,1,0,0-2Z" transform="translate(-2.206 -5.234)"/>
    <path id="패스_87" data-name="패스 87" d="M21.4,1.734A2.8,2.8,0,0,0,19.586,1H5.1A2.863,2.863,0,0,0,2.24,3.878v17.9a1.035,1.035,0,0,0,1.571.888l2.7-1.622a.257.257,0,0,1,.272,0l3,1.8a.984.984,0,0,0,.529.154,1.072,1.072,0,0,0,.536-.147l3.017-1.806a.257.257,0,0,1,.272,0l2.687,1.622a1.02,1.02,0,0,0,1.042,0,1.035,1.035,0,0,0,.521-.9V9.4h2.3a1.754,1.754,0,0,0,1.747-1.747V3.878A2.819,2.819,0,0,0,21.4,1.734ZM16.921,21.047,14.9,19.792a1.747,1.747,0,0,0-1.784,0l-2.789,1.674L7.54,19.785a1.747,1.747,0,0,0-1.806.007L3.708,21.018V3.878A1.387,1.387,0,0,1,5.1,2.468H17.222a2.628,2.628,0,0,0-.3,1.2V20.989Z"/>
  </g>
</svg>
