<svg xmlns="http://www.w3.org/2000/svg" width="22" height="21.978" viewBox="0 0 22 21.978">
  <g id="black-paper-long02" transform="translate(-1 -0.48)">
    <path id="패스_67" data-name="패스 67" d="M17.6,9.48H11.733a.733.733,0,1,0,0,1.467H17.6a.733.733,0,0,0,0-1.467Z" transform="translate(-2.667 -2.4)"/>
    <path id="패스_68" data-name="패스 68" d="M17.6,14.45H11.733a.733.733,0,0,0,0,1.467H17.6a.733.733,0,0,0,0-1.467Z" transform="translate(-2.667 -3.725)"/>
    <path id="패스_69" data-name="패스 69" d="M20.8.48H6.441A2.508,2.508,0,0,0,3.933,2.988V15.147H3.039A2.046,2.046,0,0,0,1,17.185v2.2c0,1.533,1.173,3.073,3.8,3.073H17.5a2.567,2.567,0,0,0,2.567-2.53V7.813h.895A2.046,2.046,0,0,0,23,5.767V2.68A2.2,2.2,0,0,0,20.8.48ZM18.6,17.347v2.581a1.1,1.1,0,0,1-2.2,0V17.376a2.2,2.2,0,0,0-2.2-2.2H5.4V2.988A1.041,1.041,0,0,1,6.441,1.947H18.732a2.2,2.2,0,0,0-.132.733Z" transform="translate(0 0)"/>
  </g>
</svg>
