<svg xmlns="http://www.w3.org/2000/svg" width="22" height="21.501" viewBox="0 0 22 21.501">
  <g id="black-home" transform="translate(-1 -1.499)">
    <path id="패스_34" data-name="패스 34" d="M19,23H5a4,4,0,0,1-4-4V9.7A4,4,0,0,1,2.94,6.27l7-4.2a4,4,0,0,1,4.12,0l7,4.2A4,4,0,0,1,23,9.7V19a4,4,0,0,1-4,4ZM4,8A2,2,0,0,0,3,9.7V19a2,2,0,0,0,2,2H19a2,2,0,0,0,2-2V9.7A2,2,0,0,0,20,8L13,3.8a2,2,0,0,0-2.06,0Z"/>
    <path id="패스_35" data-name="패스 35" d="M20.54,7.13l-7-4.2a3,3,0,0,0-3.08,0l-7,4.2A3,3,0,0,0,2,9.7V19a3,3,0,0,0,3,3H19a3,3,0,0,0,3-3V9.7a3,3,0,0,0-1.46-2.57Z"/>
  </g>
</svg>
