<svg xmlns="http://www.w3.org/2000/svg" width="22" height="22" viewBox="0 0 22 22">
  <g id="black-filter" transform="translate(-1 -1)">
    <path id="패스_36" data-name="패스 36" d="M5,9A4,4,0,1,1,9,5,4,4,0,0,1,5,9ZM5,3A2,2,0,1,0,7,5,2,2,0,0,0,5,3Z"/>
    <path id="패스_37" data-name="패스 37" d="M19,16a4,4,0,1,1,4-4A4,4,0,0,1,19,16Zm0-6a2,2,0,1,0,2,2A2,2,0,0,0,19,10Z"/>
    <path id="패스_38" data-name="패스 38" d="M5,23a4,4,0,1,1,4-4A4,4,0,0,1,5,23Zm0-6a2,2,0,1,0,2,2A2,2,0,0,0,5,17Z"/>
    <path id="패스_39" data-name="패스 39" d="M21,6H8V4H21a1,1,0,0,1,0,2Z"/>
    <path id="패스_40" data-name="패스 40" d="M16,13H3a1,1,0,1,1,0-2H16Z"/>
    <path id="패스_41" data-name="패스 41" d="M21,20H8V18H21a1,1,0,0,1,0,2Z"/>
    <circle id="타원_2" data-name="타원 2" cx="3" cy="3" r="3" transform="translate(2 2)"/>
    <circle id="타원_3" data-name="타원 3" cx="3" cy="3" r="3" transform="translate(16 9)"/>
  </g>
</svg>
