<svg xmlns="http://www.w3.org/2000/svg" width="22" height="22" viewBox="0 0 22 22">
  <g id="black-computer" transform="translate(-1 -1)">
    <path id="패스_28" data-name="패스 28" d="M19,19H5a4,4,0,0,1-4-4V5A4,4,0,0,1,5,1H19a4,4,0,0,1,4,4V15A4,4,0,0,1,19,19ZM5,3A2,2,0,0,0,3,5V15a2,2,0,0,0,2,2H19a2,2,0,0,0,2-2V5a2,2,0,0,0-2-2Z"/>
    <path id="패스_29" data-name="패스 29" d="M15,23H9V17h6Zm-4-2h2V19H11Z"/>
    <rect id="사각형_5" data-name="사각형 5" width="12" height="2" rx="1" transform="translate(6 21)"/>
    <path id="패스_30" data-name="패스 30" d="M2,13H22v2H2Z"/>
    <path id="패스_31" data-name="패스 31" d="M5,2H19a3,3,0,0,1,3,3v9H2V5A3,3,0,0,1,5,2Z"/>
  </g>
</svg>
