<svg xmlns="http://www.w3.org/2000/svg" width="22" height="22" viewBox="0 0 22 22">
  <g id="black-user" transform="translate(-0.989 -0.999)">
    <path id="패스_76" data-name="패스 76" d="M14.4,13.8a4.4,4.4,0,1,1,4.4-4.4A4.4,4.4,0,0,1,14.4,13.8Zm0-7.333A2.933,2.933,0,1,0,17.333,9.4,2.933,2.933,0,0,0,14.4,6.467Z" transform="translate(-2.403 -1.067)"/>
    <path id="패스_77" data-name="패스 77" d="M12.77,27.736a11,11,0,0,1-8.5-4.026l-.381-.469.381-.462a11,11,0,0,1,17,0l.381.462-.381.469A11,11,0,0,1,12.77,27.736ZM5.811,23.248a9.533,9.533,0,0,0,13.933,0,9.533,9.533,0,0,0-13.933,0Z" transform="translate(-0.774 -4.737)"/>
    <path id="패스_78" data-name="패스 78" d="M12,23a11,11,0,1,1,8.5-4.026A11,11,0,0,1,12,23ZM12,2.466A9.533,9.533,0,1,0,21.53,12,9.533,9.533,0,0,0,12,2.466Z"/>
    <path id="패스_79" data-name="패스 79" d="M5.18,23.479s7.384,8.25,14.9.821l.968-.821s-6.277-6.512-12.65-2.6Z" transform="translate(-1.118 -4.968)"/>
    <circle id="타원_11" data-name="타원 11" cx="3.667" cy="3.667" r="3.667" transform="translate(8.33 4.666)"/>
  </g>
</svg>
