<svg xmlns="http://www.w3.org/2000/svg" width="19.284" height="22" viewBox="0 0 19.284 22">
  <g id="black-gift" transform="translate(-3 -1.167)">
    <path id="패스_80" data-name="패스 80" d="M3,9.357V20.668a2.5,2.5,0,0,0,2.507,2.5H19.784a2.5,2.5,0,0,0,2.5-2.5V9.357a2.507,2.507,0,0,0-2.5-2.507H18.2a4.383,4.383,0,0,0,.579-.742,3.6,3.6,0,0,0,.089-3.53A2.8,2.8,0,0,0,16.35,1.169a3.849,3.849,0,0,0-2.967,1.253,4.509,4.509,0,0,0-.742,1.053,4.509,4.509,0,0,0-.7-1.053A3.849,3.849,0,0,0,8.97,1.169a2.818,2.818,0,0,0-2.522,1.4A3.6,3.6,0,0,0,6.538,6.1a4.383,4.383,0,0,0,.579.742H5.507A2.507,2.507,0,0,0,3,9.357Zm8.9,11.585.045-11.867a.742.742,0,0,1,1.483,0l-.045,11.867a.742.742,0,0,1-1.483,0Zm4.45-18.29a1.328,1.328,0,0,1,1.239.66,2.069,2.069,0,0,1-.1,2.047,3.351,3.351,0,0,1-3.174,1.483h-.935a5.416,5.416,0,0,1,1.031-3.434,2.425,2.425,0,0,1,1.936-.757ZM7.8,5.36a2.069,2.069,0,0,1-.1-2.047,1.328,1.328,0,0,1,1.231-.66,2.425,2.425,0,0,1,1.9.742A5.81,5.81,0,0,1,11.9,6.851h-.927A3.323,3.323,0,0,1,7.8,5.36Z" transform="translate(0)"/>
  </g>
</svg>
