<svg xmlns="http://www.w3.org/2000/svg" width="16.156" height="22" viewBox="0 0 16.156 22">
  <g id="black-ticket" transform="translate(-5 -1.041)">
    <path id="패스_83" data-name="패스 83" d="M21.155,2.252a1.035,1.035,0,0,0-1.571-.889l-2.7,1.623a.242.242,0,0,1-.264,0l-3-1.8a1.043,1.043,0,0,0-1.065,0l-3.018,1.8a.257.257,0,0,1-.272,0L6.571,1.371a1.021,1.021,0,0,0-1.043,0A1.05,1.05,0,0,0,5,2.252V21.8a1.035,1.035,0,0,0,1.571.889l2.7-1.623a.242.242,0,0,1,.264,0l3,1.8a1.028,1.028,0,0,0,.536.176,1.043,1.043,0,0,0,.529-.147l3.018-1.806a.257.257,0,0,1,.272,0L19.584,22.7a1.028,1.028,0,0,0,1.571-.9Zm-5.14,10.332H10.14a.734.734,0,1,1,0-1.469h5.875a.734.734,0,1,1,0,1.469Zm.734,3.282a.734.734,0,0,1-.734.734H10.14a.734.734,0,1,1,0-1.469h5.875A.734.734,0,0,1,16.749,15.867Zm-.734-7.219H10.14a.734.734,0,0,1,0-1.469h5.875a.734.734,0,1,1,0,1.469Z" transform="translate(0)"/>
  </g>
</svg>
