<svg xmlns="http://www.w3.org/2000/svg" width="22" height="23.571" viewBox="0 0 22 23.571">
  <g id="black-trashcan" transform="translate(-2 -1)">
    <path id="패스_88" data-name="패스 88" d="M2.786,6.571H4.357V22.663a2.774,2.774,0,0,0,2.766,2.766H18.909a2.774,2.774,0,0,0,2.734-2.766V6.571h1.571a.786.786,0,1,0,0-1.571H2.786a.786.786,0,1,0,0,1.571ZM16.394,10.5v9.429a.786.786,0,0,1-1.571,0V10.5a.786.786,0,1,1,1.571,0Zm-5.217,0v9.429a.786.786,0,0,1-1.571,0V10.5a.786.786,0,1,1,1.571,0Z" transform="translate(0 -0.857)"/>
    <path id="패스_89" data-name="패스 89" d="M11.786,2.571h6.286a.786.786,0,1,0,0-1.571H11.786a.786.786,0,1,0,0,1.571Z" transform="translate(-1.929)"/>
  </g>
</svg>
