<svg xmlns="http://www.w3.org/2000/svg" width="18" height="21" viewBox="0 0 18 21">
  <g id="black-bell" transform="translate(-3 -2)">
    <rect id="사각형_11" data-name="사각형 11" width="6" height="2" rx="1" transform="translate(9 21)"/>
    <path id="패스_48" data-name="패스 48" d="M19,19H5V11a7,7,0,1,1,14,0ZM7,17H17V11A5,5,0,1,0,7,11Z"/>
    <rect id="사각형_12" data-name="사각형 12" width="18" height="2" rx="1" transform="translate(3 17)"/>
    <path id="패스_49" data-name="패스 49" d="M13,6H11V3a1,1,0,0,1,2,0Z"/>
    <path id="패스_50" data-name="패스 50" d="M12,5a6,6,0,0,1,6,6v7H6V11a6,6,0,0,1,6-6Z"/>
  </g>
</svg>
