<svg xmlns="http://www.w3.org/2000/svg" width="22.001" height="22" viewBox="0 0 22.001 22">
  <g id="black-graph-circle" transform="translate(-0.991 -1)">
    <path id="패스_66" data-name="패스 66" d="M22.389,8.333l-.073-.117a11,11,0,0,0-2.552-4l-.044-.073-.139-.1a10.927,10.927,0,0,0-3.373-2.2l-.161-.073A10.875,10.875,0,0,0,12,1,11,11,0,1,0,22.418,8.495Zm-.858,4.4a9.372,9.372,0,0,1-.733,2.977l-5.676-2.977ZM12,21.533A9.533,9.533,0,1,1,15.034,2.973c-.521,1.122-1.518,3.505-3.667,8.631l-.147.44.22.323a.836.836,0,0,0,.491.345l8.133,4.3A9.533,9.533,0,0,1,12,21.533Z" transform="translate(0 0)"/>
  </g>
</svg>
