<svg xmlns="http://www.w3.org/2000/svg" width="22" height="22" viewBox="0 0 22 22">
  <g id="black-plus-square" transform="translate(-1 -1)">
    <path id="패스_19" data-name="패스 19" d="M19,2H5A3,3,0,0,0,2,5V19a3,3,0,0,0,3,3H19a3,3,0,0,0,3-3V5A3,3,0,0,0,19,2ZM17,13H13v4a1,1,0,0,1-2,0V13H7a1,1,0,0,1,0-2h4V7a1,1,0,0,1,2,0v4h4a1,1,0,0,1,0,2Z"/>
    <path id="패스_20" data-name="패스 20" d="M19,23H5a4,4,0,0,1-4-4V5A4,4,0,0,1,5,1H19a4,4,0,0,1,4,4V19A4,4,0,0,1,19,23ZM5,3A2,2,0,0,0,3,5V19a2,2,0,0,0,2,2H19a2,2,0,0,0,2-2V5a2,2,0,0,0-2-2Z"/>
  </g>
</svg>
