<svg xmlns="http://www.w3.org/2000/svg" width="22" height="22" viewBox="0 0 22 22">
  <g id="black-calendar" transform="translate(-1 -1)">
    <path id="패스_21" data-name="패스 21" d="M19,23H5a4,4,0,0,1-4-4V7A4,4,0,0,1,5,3H19a4,4,0,0,1,4,4V19A4,4,0,0,1,19,23ZM5,5A2,2,0,0,0,3,7V19a2,2,0,0,0,2,2H19a2,2,0,0,0,2-2V7a2,2,0,0,0-2-2Z"/>
    <rect id="사각형_3" data-name="사각형 3" width="2" height="6" rx="1" transform="translate(6 1)"/>
    <rect id="사각형_4" data-name="사각형 4" width="2" height="6" rx="1" transform="translate(16 1)"/>
    <path id="패스_22" data-name="패스 22" d="M19,23H5a4,4,0,0,1-4-4V7A4,4,0,0,1,5,3H19a4,4,0,0,1,4,4V19A4,4,0,0,1,19,23ZM5,5A2,2,0,0,0,3,7V19a2,2,0,0,0,2,2H19a2,2,0,0,0,2-2V7a2,2,0,0,0-2-2Z"/>
    <path id="패스_23" data-name="패스 23" d="M2,10H22v9a3,3,0,0,1-3,3H5a3,3,0,0,1-3-3Z"/>
  </g>
</svg>
