<svg xmlns="http://www.w3.org/2000/svg" width="22" height="22" viewBox="0 0 22 22">
  <g id="black-camera" transform="translate(-1 -1)">
    <path id="패스_24" data-name="패스 24" d="M19,23H5a4,4,0,0,1-4-4V9A4,4,0,0,1,5,5a.6.6,0,0,0,.55-.34l.73-1.45A4,4,0,0,1,9.85,1h4.3a4,4,0,0,1,3.57,2.21l.73,1.45A.6.6,0,0,0,19,5a4,4,0,0,1,4,4V19A4,4,0,0,1,19,23ZM9.85,3A2,2,0,0,0,8.07,4.11L7.34,5.55A2.58,2.58,0,0,1,5,7,2,2,0,0,0,3,9V19a2,2,0,0,0,2,2H19a2,2,0,0,0,2-2V9a2,2,0,0,0-2-2,2.59,2.59,0,0,1-2.34-1.45l-.73-1.44A2,2,0,0,0,14.15,3Z"/>
    <path id="패스_25" data-name="패스 25" d="M19,6a1.64,1.64,0,0,1-1.45-.89l-.72-1.45A3,3,0,0,0,14.15,2H9.85A3,3,0,0,0,7.17,3.66L6.45,5.11A1.64,1.64,0,0,1,5,6,3,3,0,0,0,2,9V19a3,3,0,0,0,3,3H19a3,3,0,0,0,3-3V9A3,3,0,0,0,19,6ZM12,17a3,3,0,1,1,3-3A3,3,0,0,1,12,17Zm6-6a1,1,0,1,1,1-1A1,1,0,0,1,18,11Z"/>
  </g>
</svg>
