<svg xmlns="http://www.w3.org/2000/svg" width="22" height="22" viewBox="0 0 22 22">
  <g id="black-browser" transform="translate(-1 -1)">
    <path id="패스_60" data-name="패스 60" d="M22,12A10,10,0,0,1,12,22c2.21,0,4-4.48,4-10S14.21,2,12,2A10,10,0,0,1,22,12Z"/>
    <path id="패스_61" data-name="패스 61" d="M12,23A11,11,0,1,1,23,12,11,11,0,0,1,12,23ZM12,3a9,9,0,1,0,9,9A9,9,0,0,0,12,3Z"/>
    <path id="패스_62" data-name="패스 62" d="M12,23c-3.25,0-5-5.67-5-11S8.75,1,12,1s5,5.67,5,11S15.25,23,12,23ZM12,3c-1.22,0-3,3.51-3,9s1.78,9,3,9,3-3.51,3-9S13.22,3,12,3Z"/>
    <path id="패스_63" data-name="패스 63" d="M2,11H22v2H2Z"/>
    <path id="패스_64" data-name="패스 64" d="M12,23c-3.25,0-5-5.67-5-11S8.75,1,12,1s5,5.67,5,11S15.25,23,12,23ZM12,3c-1.22,0-3,3.51-3,9s1.78,9,3,9,3-3.51,3-9S13.22,3,12,3Z"/>
  </g>
</svg>
