<svg xmlns="http://www.w3.org/2000/svg" width="22" height="22" viewBox="0 0 22 22">
  <g id="black-question-circle" transform="translate(-1 -1.13)">
    <path id="패스_81" data-name="패스 81" d="M12,23.13a11,11,0,1,0-11-11,11,11,0,0,0,11,11ZM7.952,7.877A4.07,4.07,0,0,1,9.067,5.889,3.967,3.967,0,0,1,12,4.7a4.055,4.055,0,0,1,2.2,7.48,3.586,3.586,0,0,0-1.511,2.933v1.012a.733.733,0,0,1-1.467,0v-.99a5.038,5.038,0,0,1,2.2-4.195,2.589,2.589,0,0,0,1.137-2.163,2.53,2.53,0,0,0-1.591-2.266c-.814-.345-.931-.345-1.049-.345A2.611,2.611,0,0,0,9.382,8.177a.731.731,0,1,1-1.43-.3ZM12,19.537a.733.733,0,1,1,.733-.733A.733.733,0,0,1,12,19.537Z" transform="translate(0 0)"/>
  </g>
</svg>
