<svg xmlns="http://www.w3.org/2000/svg" width="22" height="22" viewBox="0 0 22 22">
  <g id="black-graph-circle" transform="translate(-1 -1)">
    <path id="패스_26" data-name="패스 26" d="M19,23H5a4,4,0,0,1-4-4V5A4,4,0,0,1,5,1H19a4,4,0,0,1,4,4V19A4,4,0,0,1,19,23ZM5,3A2,2,0,0,0,3,5V19a2,2,0,0,0,2,2H19a2,2,0,0,0,2-2V5a2,2,0,0,0-2-2Z"/>
    <path id="패스_27" data-name="패스 27" d="M19,2H5A3,3,0,0,0,2,5V19a3,3,0,0,0,3,3H19a3,3,0,0,0,3-3V5A3,3,0,0,0,19,2ZM8,19a1,1,0,0,1-2,0V15a1,1,0,0,1,2,0Zm5,0a1,1,0,0,1-2,0V7a1,1,0,0,1,2,0Zm5,0a1,1,0,0,1-2,0V11a1,1,0,0,1,2,0Z"/>
  </g>
</svg>
