<svg xmlns="http://www.w3.org/2000/svg" width="22" height="22" viewBox="0 0 22 22">
  <g id="black-menu" transform="translate(-1 -1)">
    <path id="패스_42" data-name="패스 42" d="M8,11H4A3,3,0,0,1,1,8V4A3,3,0,0,1,4,1H8a3,3,0,0,1,3,3V8A3,3,0,0,1,8,11ZM4,3A1,1,0,0,0,3,4V8A1,1,0,0,0,4,9H8A1,1,0,0,0,9,8V4A1,1,0,0,0,8,3Z"/>
    <path id="패스_43" data-name="패스 43" d="M20,11H16a3,3,0,0,1-3-3V4a3,3,0,0,1,3-3h4a3,3,0,0,1,3,3V8A3,3,0,0,1,20,11ZM16,3a1,1,0,0,0-1,1V8a1,1,0,0,0,1,1h4a1,1,0,0,0,1-1V4a1,1,0,0,0-1-1Z"/>
    <path id="패스_44" data-name="패스 44" d="M8,23H4a3,3,0,0,1-3-3V16a3,3,0,0,1,3-3H8a3,3,0,0,1,3,3v4A3,3,0,0,1,8,23ZM4,15a1,1,0,0,0-1,1v4a1,1,0,0,0,1,1H8a1,1,0,0,0,1-1V16a1,1,0,0,0-1-1Z"/>
    <path id="패스_45" data-name="패스 45" d="M18,23a5,5,0,1,1,5-5,5,5,0,0,1-5,5Zm0-8a3,3,0,1,0,3,3A3,3,0,0,0,18,15Z"/>
    <rect id="사각형_6" data-name="사각형 6" width="8" height="8" rx="2" transform="translate(2 2)"/>
    <rect id="사각형_7" data-name="사각형 7" width="8" height="8" rx="2" transform="translate(14 2)"/>
    <rect id="사각형_8" data-name="사각형 8" width="8" height="8" rx="2" transform="translate(2 14)"/>
  </g>
</svg>
