<svg xmlns="http://www.w3.org/2000/svg" width="19.667" height="18" viewBox="0 0 19.667 18">
  <g id="calendar-search" transform="translate(0 -14.97)">
    <g id="그룹_382" data-name="그룹 382" transform="translate(0 14.97)">
      <path id="패스_114" data-name="패스 114" d="M16.667,23.25a.669.669,0,0,0,.667-.667V18.69A2.389,2.389,0,0,0,14.947,16.3H14v-.667a.667.667,0,0,0-1.333,0V16.3h-8v-.667a.667.667,0,0,0-1.333,0V16.3H2.387A2.389,2.389,0,0,0,0,18.69V30.583A2.389,2.389,0,0,0,2.387,32.97H9.613a.667.667,0,1,0,0-1.333H2.387a1.056,1.056,0,0,1-1.053-1.053V18.69a1.056,1.056,0,0,1,1.053-1.053h.947V18.3a.667.667,0,0,0,1.333,0v-.667h8V18.3A.667.667,0,0,0,14,18.3v-.667h.947A1.056,1.056,0,0,1,16,18.69v3.893A.669.669,0,0,0,16.667,23.25Z" transform="translate(0 -14.97)"/>
      <circle id="타원_13" data-name="타원 13" cx="0.833" cy="0.833" r="0.833" transform="translate(4 6)"/>
      <circle id="타원_14" data-name="타원 14" cx="0.833" cy="0.833" r="0.833" transform="translate(7.667 6)"/>
      <circle id="타원_15" data-name="타원 15" cx="0.833" cy="0.833" r="0.833" transform="translate(11.333 6)"/>
      <circle id="타원_16" data-name="타원 16" cx="0.833" cy="0.833" r="0.833" transform="translate(4 9.333)"/>
      <circle id="타원_17" data-name="타원 17" cx="0.833" cy="0.833" r="0.833" transform="translate(7.667 9.333)"/>
      <circle id="타원_18" data-name="타원 18" cx="0.833" cy="0.833" r="0.833" transform="translate(4 12.667)"/>
      <circle id="타원_19" data-name="타원 19" cx="0.833" cy="0.833" r="0.833" transform="translate(7.667 12.667)"/>
      <path id="패스_115" data-name="패스 115" d="M208.124,182.637a3.828,3.828,0,0,0-3.137,6.03l-1.167,1.167a.668.668,0,0,0,0,.943.675.675,0,0,0,.47.193.664.664,0,0,0,.47-.2l1.167-1.167a3.832,3.832,0,1,0,2.2-6.97Zm0,6.333a2.5,2.5,0,1,1,2.5-2.5A2.5,2.5,0,0,1,208.124,188.97Z" transform="translate(-192.291 -173.304)"/>
    </g>
  </g>
</svg>
