<svg xmlns="http://www.w3.org/2000/svg" width="17.333" height="18" viewBox="0 0 17.333 18">
  <g id="calendar-check" transform="translate(-5.988)">
    <g id="그룹_357" data-name="그룹 357" transform="translate(5.988 0)">
      <path id="패스_95" data-name="패스 95" d="M9.988,0a.669.669,0,0,0-.667.667v.667H8.375A2.389,2.389,0,0,0,5.988,3.72V15.613A2.389,2.389,0,0,0,8.375,18h12.56a2.389,2.389,0,0,0,2.387-2.387V3.72a2.389,2.389,0,0,0-2.387-2.387h-.947V.667a.667.667,0,0,0-1.333,0v.667h-8V.667A.669.669,0,0,0,9.988,0Zm8.667,2.667v.667a.667.667,0,0,0,1.333,0V2.667h.947A1.056,1.056,0,0,1,21.988,3.72V15.613a1.056,1.056,0,0,1-1.053,1.053H8.375a1.056,1.056,0,0,1-1.053-1.053V3.72A1.056,1.056,0,0,1,8.375,2.667h.947v.667a.667.667,0,1,0,1.333,0V2.667Z" transform="translate(-5.988 0)"/>
      <path id="패스_96" data-name="패스 96" d="M92.722,131.459a.66.66,0,0,0,.94,0l4.48-4.48a.667.667,0,0,0-.943-.943l-4.007,4.01-2.023-2.023a.667.667,0,1,0-.943.943Z" transform="translate(-85.352 -118.836)"/>
    </g>
  </g>
</svg>
