<svg xmlns="http://www.w3.org/2000/svg" width="18" height="18" viewBox="0 0 18 18">
  <g id="graph-square" transform="translate(-1 -1)">
    <path id="패스_26" data-name="패스 26" d="M15.727,19H4.273A3.273,3.273,0,0,1,1,15.727V4.273A3.273,3.273,0,0,1,4.273,1H15.727A3.273,3.273,0,0,1,19,4.273V15.727A3.273,3.273,0,0,1,15.727,19ZM4.273,2.636A1.636,1.636,0,0,0,2.636,4.273V15.727a1.636,1.636,0,0,0,1.636,1.636H15.727a1.636,1.636,0,0,0,1.636-1.636V4.273a1.636,1.636,0,0,0-1.636-1.636Z" fill="#b8bed1"/>
    <path id="패스_27" data-name="패스 27" d="M15.909,2H4.455A2.455,2.455,0,0,0,2,4.455V15.909a2.455,2.455,0,0,0,2.455,2.455H15.909a2.455,2.455,0,0,0,2.455-2.455V4.455A2.455,2.455,0,0,0,15.909,2Zm-9,13.909a.818.818,0,1,1-1.636,0V12.636a.818.818,0,1,1,1.636,0Zm4.091,0a.818.818,0,0,1-1.636,0V6.091a.818.818,0,0,1,1.636,0Zm4.091,0a.818.818,0,1,1-1.636,0V9.364a.818.818,0,1,1,1.636,0Z" transform="translate(-0.182 -0.182)" fill="#b8bed1"/>
  </g>
</svg>
