<svg xmlns="http://www.w3.org/2000/svg" width="18" height="17.999" viewBox="0 0 18 17.999">
  <g id="graph-circle" transform="translate(-0.991 -1)">
    <path id="패스_66" data-name="패스 66" d="M18.5,7l-.06-.1a9,9,0,0,0-2.088-3.276l-.036-.06L16.2,3.49a8.939,8.939,0,0,0-2.76-1.8l-.132-.06A8.9,8.9,0,0,0,10,1a9,9,0,1,0,8.525,6.132Zm-.7,3.6a7.667,7.667,0,0,1-.6,2.436L12.552,10.6ZM10,17.8A7.8,7.8,0,1,1,12.48,2.614c-.426.918-1.242,2.868-3,7.062l-.12.36.18.264a.684.684,0,0,0,.4.282L16.6,14.1A7.8,7.8,0,0,1,10,17.8Z" transform="translate(0 0)" fill="#b8bed1"/>
  </g>
</svg>
