<svg xmlns="http://www.w3.org/2000/svg" width="18" height="17.592" viewBox="0 0 18 17.592">
  <g id="home-h" transform="translate(-598 -411.633)">
    <g id="Layer_2" data-name="Layer 2" transform="translate(597 410.134)">
      <path id="패스_15" data-name="패스 15" d="M15.727,19.091H4.273A3.273,3.273,0,0,1,1,15.818V8.209A3.273,3.273,0,0,1,2.587,5.4L8.315,1.966a3.273,3.273,0,0,1,3.371,0L17.413,5.4A3.273,3.273,0,0,1,19,8.209v7.609a3.273,3.273,0,0,1-3.273,3.273ZM3.455,6.818a1.636,1.636,0,0,0-.818,1.391v7.609a1.636,1.636,0,0,0,1.636,1.636H15.727a1.636,1.636,0,0,0,1.636-1.636V8.209a1.636,1.636,0,0,0-.818-1.391L10.818,3.382a1.636,1.636,0,0,0-1.685,0Z" transform="translate(0)" fill="#b8bed1"/>
      <path id="패스_16" data-name="패스 16" d="M17.169,6.289,11.442,2.853a2.455,2.455,0,0,0-2.52,0L3.195,6.289A2.455,2.455,0,0,0,2,8.392V16a2.455,2.455,0,0,0,2.455,2.455H15.909A2.455,2.455,0,0,0,18.364,16V8.392a2.455,2.455,0,0,0-1.195-2.1Z" transform="translate(0 -0.006)" fill="#b8bed1"/>
    </g>
    <text id="H" transform="translate(603 424.633)" fill="#f9f9f9" font-size="9" font-family="GmarketSansBold, Gmarket Sans"><tspan x="0" y="0">H</tspan></text>
  </g>
</svg>
