<svg xmlns="http://www.w3.org/2000/svg" width="18" height="18" viewBox="0 0 18 18">
  <g id="paper" transform="translate(-1 -1)">
    <circle id="타원_4" data-name="타원 4" cx="0.818" cy="0.818" r="0.818" transform="translate(14.091 12.455)" fill="#b8bed1"/>
    <rect id="사각형_9" data-name="사각형 9" width="8.182" height="1.636" rx="0.818" transform="translate(7.545 9.182)" fill="#b8bed1"/>
    <rect id="사각형_10" data-name="사각형 10" width="4.909" height="1.636" rx="0.818" transform="translate(7.545 12.455)" fill="#b8bed1"/>
    <path id="패스_46" data-name="패스 46" d="M16.636,2H8.455A2.455,2.455,0,0,0,6,4.455V7.727H19.091V4.455A2.455,2.455,0,0,0,16.636,2ZM14.182,6.091H10.909a.818.818,0,1,1,0-1.636h3.273a.818.818,0,1,1,0,1.636Z" transform="translate(-0.909 -0.182)" fill="#b8bed1"/>
    <path id="패스_47" data-name="패스 47" d="M15.727,19H4.273A3.273,3.273,0,0,1,1,15.727V5.909a.818.818,0,0,1,1.636,0v9.818a1.636,1.636,0,0,0,1.636,1.636H15.727a1.636,1.636,0,0,0,1.636-1.636V4.273a1.636,1.636,0,0,0-1.636-1.636H7.545A1.636,1.636,0,0,0,5.909,4.273V14.909a.818.818,0,0,1-1.636,0V4.273A3.273,3.273,0,0,1,7.545,1h8.182A3.273,3.273,0,0,1,19,4.273V15.727A3.273,3.273,0,0,1,15.727,19Z" fill="#b8bed1"/>
  </g>
</svg>
