<svg id="people3" xmlns="http://www.w3.org/2000/svg" width="22" height="22" viewBox="0 0 22 22">
  <g id="그룹_346" data-name="그룹 346">
    <path id="패스_90" data-name="패스 90" d="M18.675,16.674a3.606,3.606,0,0,0-1.8-6.011A5.945,5.945,0,0,0,13.605,6.1a3.609,3.609,0,1,0-5.21,0A5.945,5.945,0,0,0,5.12,10.663a3.605,3.605,0,0,0-1.8,6.011A5.937,5.937,0,0,0,0,22H1.719a4.211,4.211,0,0,1,8.422,0h1.719a4.211,4.211,0,0,1,8.422,0H22A5.937,5.937,0,0,0,18.675,16.674ZM11,1.719A1.891,1.891,0,1,1,9.109,3.609,1.893,1.893,0,0,1,11,1.719ZM5.93,16.07A1.891,1.891,0,1,1,7.82,14.18,1.893,1.893,0,0,1,5.93,16.07Zm7.536.6A5.971,5.971,0,0,0,11,18.928a5.971,5.971,0,0,0-2.465-2.254,3.606,3.606,0,0,0-1.681-5.983,4.211,4.211,0,0,1,8.292,0,3.606,3.606,0,0,0-1.681,5.983Zm2.6-.6a1.891,1.891,0,1,1,1.891-1.891A1.893,1.893,0,0,1,16.07,16.07Z"/>
  </g>
</svg>
