<svg xmlns="http://www.w3.org/2000/svg" width="18" height="17.967" viewBox="0 0 18 17.967">
  <g id="pin-fix" transform="translate(-2.12 -1.222)">
    <path id="패스_70" data-name="패스 70" d="M15.606,1.71a1.768,1.768,0,0,0-2.439,0L7.337,7.541a1.712,1.712,0,0,1-.545.37L4.057,9.058a1.549,1.549,0,0,0-.627,2.564L6.1,14.293,2.34,18.086a.627.627,0,1,0,.884.884l3.793-3.762,2.671,2.671a1.53,1.53,0,0,0,1.091.451,1.73,1.73,0,0,0,.357-.038,1.53,1.53,0,0,0,1.1-.972l1.179-2.777a1.712,1.712,0,0,1,.37-.545l5.831-5.831a1.718,1.718,0,0,0,0-2.439Z" fill="#b8bed1"/>
  </g>
</svg>
