<svg xmlns="http://www.w3.org/2000/svg" width="18" height="18" viewBox="0 0 18 18">
  <g id="play-computer" transform="translate(-1 -1)">
    <rect id="사각형_13" data-name="사각형 13" width="9.818" height="1.636" rx="0.818" transform="translate(5.091 17.364)" fill="#b8bed1"/>
    <path id="패스_55" data-name="패스 55" d="M15.727,15.727H4.273A3.273,3.273,0,0,1,1,12.455V4.273A3.273,3.273,0,0,1,4.273,1H15.727A3.273,3.273,0,0,1,19,4.273v8.182A3.273,3.273,0,0,1,15.727,15.727ZM4.273,2.636A1.636,1.636,0,0,0,2.636,4.273v8.182a1.636,1.636,0,0,0,1.636,1.636H15.727a1.636,1.636,0,0,0,1.636-1.636V4.273a1.636,1.636,0,0,0-1.636-1.636Z" fill="#b8bed1"/>
    <path id="패스_56" data-name="패스 56" d="M15.909,2H4.455A2.455,2.455,0,0,0,2,4.455v8.182a2.455,2.455,0,0,0,2.455,2.455H15.909a2.455,2.455,0,0,0,2.455-2.455V4.455A2.455,2.455,0,0,0,15.909,2ZM12.571,9.265,9.544,10.9a.818.818,0,0,1-1.2-.72V6.909a.818.818,0,0,1,1.2-.72l3.027,1.636a.818.818,0,0,1,0,1.44Z" transform="translate(-0.182 -0.182)" fill="#b8bed1"/>
    <path id="패스_57" data-name="패스 57" d="M13.909,21.909H9V17h4.909Zm-3.273-1.636h1.636V18.636H10.636Z" transform="translate(-1.455 -2.909)" fill="#b8bed1"/>
  </g>
</svg>
