<svg xmlns="http://www.w3.org/2000/svg" width="18" height="18" viewBox="0 0 18 18">
  <g id="user-circle" transform="translate(-0.989 -0.999)">
    <path id="패스_76" data-name="패스 76" d="M13.6,12.2a3.6,3.6,0,1,1,3.6-3.6A3.6,3.6,0,0,1,13.6,12.2Zm0-6A2.4,2.4,0,1,0,16,8.6,2.4,2.4,0,0,0,13.6,6.2Z" transform="translate(-3.605 -1.601)" fill="#1d2a46"/>
    <path id="패스_77" data-name="패스 77" d="M11.156,26.1A9,9,0,0,1,4.2,22.811l-.312-.384.312-.378a9,9,0,0,1,13.908,0l.312.378-.312.384A9,9,0,0,1,11.156,26.1ZM5.462,22.433a7.8,7.8,0,0,0,11.4,0,7.8,7.8,0,0,0-11.4,0Z" transform="translate(-1.161 -7.106)" fill="#1d2a46"/>
    <path id="패스_78" data-name="패스 78" d="M10,19a9,9,0,1,1,6.954-3.294A9,9,0,0,1,10,19ZM10,2.2a7.8,7.8,0,1,0,7.8,7.8A7.8,7.8,0,0,0,10,2.2Z" transform="translate(0 0)" fill="#1d2a46"/>
    <path id="패스_79" data-name="패스 79" d="M5.18,22.778s6.042,6.75,12.192.672l.792-.672s-5.136-5.328-10.35-2.13Z" transform="translate(-1.677 -7.451)" fill="#1d2a46"/>
    <circle id="타원_11" data-name="타원 11" cx="3" cy="3" r="3" transform="translate(6.995 3.999)" fill="#1d2a46"/>
  </g>
</svg>
