<svg xmlns="http://www.w3.org/2000/svg" width="21.995" height="22" viewBox="0 0 21.995 22">
  <g id="user-check" transform="translate(-0.06)">
    <g id="그룹_348" data-name="그룹 348" transform="translate(10.253 12.875)">
      <g id="그룹_347" data-name="그룹 347">
        <path id="패스_91" data-name="패스 91" d="M247.794,299.636l-5.97,6.647-3.369-3.207-1.185,1.245,4.65,4.427,7.152-7.963Z" transform="translate(-237.271 -299.636)"/>
      </g>
    </g>
    <g id="그룹_350" data-name="그룹 350" transform="translate(0.06)">
      <g id="그룹_349" data-name="그룹 349">
        <path id="패스_92" data-name="패스 92" d="M14.658,11.6a6.359,6.359,0,1,0-7.2,0A11.017,11.017,0,0,0,.06,22H1.779a9.275,9.275,0,0,1,15.03-7.28l1.154-1.285A10.909,10.909,0,0,0,14.658,11.6Zm-3.6-.6A4.641,4.641,0,1,1,15.7,6.359,4.646,4.646,0,0,1,11.06,11Z" transform="translate(-0.06)"/>
      </g>
    </g>
  </g>
</svg>
