<svg xmlns="http://www.w3.org/2000/svg" width="22" height="21.957" viewBox="0 0 22 21.957">
  <g id="user-plus" transform="translate(0 -0.499)">
    <g id="그룹_352" data-name="그룹 352" transform="translate(0 0.499)">
      <g id="그룹_351" data-name="그룹 351">
        <path id="패스_93" data-name="패스 93" d="M10.979.5A6.345,6.345,0,0,0,7.387,12.076,11,11,0,0,0,0,22.456H1.715a9.274,9.274,0,0,1,9.263-9.263A6.347,6.347,0,0,0,10.979.5Zm0,10.979A4.632,4.632,0,1,1,15.61,6.846,4.637,4.637,0,0,1,10.979,11.478Z" transform="translate(0 -0.499)"/>
      </g>
    </g>
    <g id="그룹_354" data-name="그룹 354" transform="translate(13.08 13.536)">
      <g id="그룹_353" data-name="그룹 353">
        <path id="패스_94" data-name="패스 94" d="M309.723,307.508v-3.6h-1.715v3.6h-3.6v1.715h3.6v3.6h1.715v-3.6h3.6v-1.715Z" transform="translate(-304.405 -303.906)"/>
      </g>
    </g>
  </g>
</svg>
