<svg xmlns="http://www.w3.org/2000/svg" width="22" height="22" viewBox="0 0 22 22">
  <path id="user-time" d="M16.2,10.4A5.8,5.8,0,1,0,22,16.2,5.807,5.807,0,0,0,16.2,10.4Zm0,9.883A4.082,4.082,0,1,1,20.281,16.2,4.087,4.087,0,0,1,16.2,20.281Zm.816-4.941h1.461v1.719H15.3V13.32h1.719Zm-6.238-4.345A7.558,7.558,0,0,0,9.47,12.845,9.3,9.3,0,0,0,1.719,22H0A11.018,11.018,0,0,1,7.4,11.6a6.358,6.358,0,1,1,9.506-2.887c-.233-.022-.469-.034-.708-.034a7.537,7.537,0,0,0-1.243.1,4.64,4.64,0,1,0-4.179,2.211Zm0,0"/>
</svg>
