<svg xmlns="http://www.w3.org/2000/svg" width="15.429" height="18" viewBox="0 0 15.429 18">
  <g id="Layer_2" data-name="Layer 2" transform="translate(-3 -2)">
    <rect id="사각형_11" data-name="사각형 11" width="5.143" height="1.714" rx="0.857" transform="translate(8.143 18.286)" fill="#b8bed1"/>
    <path id="패스_48" data-name="패스 48" d="M17,16.857H5V10a6,6,0,1,1,12,0ZM6.714,15.143h8.571V10a4.286,4.286,0,1,0-8.571,0Z" transform="translate(-0.286 -0.286)" fill="#b8bed1"/>
    <rect id="사각형_12" data-name="사각형 12" width="15.429" height="1.714" rx="0.857" transform="translate(3 14.857)" fill="#b8bed1"/>
    <path id="패스_49" data-name="패스 49" d="M12.714,5.429H11V2.857a.857.857,0,1,1,1.714,0Z" transform="translate(-1.143)" fill="#b8bed1"/>
    <path id="패스_50" data-name="패스 50" d="M11.143,5a5.143,5.143,0,0,1,5.143,5.143v6H6v-6A5.143,5.143,0,0,1,11.143,5Z" transform="translate(-0.429 -0.429)" fill="#b8bed1"/>
  </g>
</svg>
